# xmcd
#
# Track frame offsets:
#	150
#	26389
#	40030
#	61389
#	94764
#	115127
#	138049
#	148934
#	158251
#	171148
#	182907
#	192464
#	197743
#	209686
#	223301
#
# Disc length: 3139 seconds
#
# Revision: 1
# Processed by: cddbd v1.5PL3 Copyright (c) Steve Scherf et al.
# Submitted via: EasyCDDAExtractor 6.5.2.1
#
DISCID=db0c410f
DTITLE=Spanky - The Nature Boy EP - The Cement Shoe EP
DYEAR=1900
DGENRE=
TTITLE0=Zoity Prawnz
TTITLE1=Cum Song
TTITLE2=Dope Hug
TTITLE3=Ozkuz Bluper
TTITLE4=Zen Is So Zen
TTITLE5=Ketameening
TTITLE6=Tampax Freedom
TTITLE7=Cootchie Coo
TTITLE8=Japanese Snuffelupagus
TTITLE9=Remember Our Brain
TTITLE10=Not Led Zeppelin's Appreciation Day
TTITLE11=Sloop Dog D
TTITLE12=Seth Arnold Hit Hole
TTITLE13=Dum and Brass
TTITLE14=Frizzy Tizzy Miss Lizzy
EXTD=
EXTT0=
EXTT1=
EXTT2=
EXTT3=
EXTT4=
EXTT5=
EXTT6=
EXTT7=
EXTT8=
EXTT9=
EXTT10=
EXTT11=
EXTT12=
EXTT13=
EXTT14=
PLAYORDER=
